<mxfile host="Electron" modified="2024-03-03T17:13:13.256Z" agent="Mozilla/5.0 (Windows NT 10.0; Win64; x64) AppleWebKit/537.36 (KHTML, like Gecko) draw.io/23.1.5 Chrome/120.0.6099.109 Electron/28.1.0 Safari/537.36" etag="SVaAvKbEmbMwTPoF0CiB" version="23.1.5" type="device" pages="2">
  <diagram name="processing" id="52a04d89-c75d-2922-d76d-85b35f80e030">
    <mxGraphModel dx="1728" dy="997" grid="1" gridSize="10" guides="1" tooltips="1" connect="1" arrows="1" fold="1" page="1" pageScale="1" pageWidth="1100" pageHeight="850" background="none" math="0" shadow="0">
      <root>
        <mxCell id="0" />
        <mxCell id="1" parent="0" />
        <mxCell id="17472293e6e8944d-4" value="max. Feed-in target&lt;br&gt;DC Voltage&lt;br&gt;[V]" style="html=1;rounded=0;shadow=0;comic=0;labelBackgroundColor=none;strokeWidth=2;fontFamily=Verdana;fontSize=12;align=center;shape=mxgraph.ios7ui.horLines;fillColor=none;" parent="1" vertex="1">
          <mxGeometry x="1000" y="240.5" width="120" height="50" as="geometry" />
        </mxCell>
        <mxCell id="oQiGW552PC2_yi8YqRPW-4" value="filter" style="shape=process;whiteSpace=wrap;html=1;backgroundOutline=1;fillColor=none;" parent="1" vertex="1">
          <mxGeometry x="230" y="160.5" width="120" height="50" as="geometry" />
        </mxCell>
        <mxCell id="oQiGW552PC2_yi8YqRPW-12" value="" style="endArrow=none;html=1;rounded=0;entryX=0.5;entryY=1;entryDx=0;entryDy=0;" parent="1" target="bK-EadkO21jLIJIZtDA8-6" edge="1">
          <mxGeometry width="50" height="50" relative="1" as="geometry">
            <mxPoint x="510" y="240.5" as="sourcePoint" />
            <mxPoint x="510" y="216.5000000000001" as="targetPoint" />
          </mxGeometry>
        </mxCell>
        <mxCell id="oQiGW552PC2_yi8YqRPW-15" value="" style="endArrow=none;html=1;rounded=0;entryX=0.5;entryY=1;entryDx=0;entryDy=0;exitX=0.5;exitY=0;exitDx=0;exitDy=0;" parent="1" target="sCNjADGq2ufAijJcPFuK-18" edge="1">
          <mxGeometry width="50" height="50" relative="1" as="geometry">
            <mxPoint x="660" y="240.5" as="sourcePoint" />
            <mxPoint x="660" y="216.5" as="targetPoint" />
          </mxGeometry>
        </mxCell>
        <mxCell id="oQiGW552PC2_yi8YqRPW-25" value="min. &amp;amp; max.&lt;br style=&quot;&quot;&gt;&lt;span style=&quot;&quot;&gt;Feed-in DC Current&lt;br&gt;[A]&lt;/span&gt;" style="html=1;rounded=0;shadow=0;comic=0;labelBackgroundColor=none;strokeWidth=2;fontFamily=Verdana;fontSize=12;align=center;shape=mxgraph.ios7ui.horLines;fillColor=none;" parent="1" vertex="1">
          <mxGeometry x="450" y="240.5" width="270" height="50" as="geometry" />
        </mxCell>
        <mxCell id="oQiGW552PC2_yi8YqRPW-27" value="Feed-in target DC current" style="whiteSpace=wrap;html=1;rounded=0;shadow=0;comic=0;labelBackgroundColor=none;strokeWidth=1;fontFamily=Verdana;fontSize=12;align=center;fillColor=none;spacingLeft=0;" parent="1" vertex="1">
          <mxGeometry x="900" y="160.5" width="100" height="49.5" as="geometry" />
        </mxCell>
        <mxCell id="oQiGW552PC2_yi8YqRPW-30" value="Actor" style="shape=umlActor;verticalLabelPosition=bottom;verticalAlign=top;html=1;outlineConnect=0;" parent="1" vertex="1">
          <mxGeometry x="470" y="480.5" width="30" height="60" as="geometry" />
        </mxCell>
        <mxCell id="oQiGW552PC2_yi8YqRPW-33" value="" style="endArrow=none;dashed=1;html=1;dashPattern=1 3;strokeWidth=2;rounded=0;exitX=0.464;exitY=1.031;exitDx=0;exitDy=0;exitPerimeter=0;entryX=0.75;entryY=0.1;entryDx=0;entryDy=0;entryPerimeter=0;" parent="1" source="oQiGW552PC2_yi8YqRPW-25" target="oQiGW552PC2_yi8YqRPW-30" edge="1">
          <mxGeometry width="50" height="50" relative="1" as="geometry">
            <mxPoint x="835" y="447.5" as="sourcePoint" />
            <mxPoint x="720" y="380.5" as="targetPoint" />
          </mxGeometry>
        </mxCell>
        <mxCell id="oQiGW552PC2_yi8YqRPW-38" value="0 A .. 13 A" style="edgeLabel;html=1;align=center;verticalAlign=middle;resizable=0;points=[];" parent="oQiGW552PC2_yi8YqRPW-33" vertex="1" connectable="0">
          <mxGeometry x="-0.0497" y="-1" relative="1" as="geometry">
            <mxPoint x="-25" y="-54" as="offset" />
          </mxGeometry>
        </mxCell>
        <mxCell id="oQiGW552PC2_yi8YqRPW-42" value="User configures value pairs for regulating the maxmimal feed-in current." style="text;html=1;strokeColor=none;fillColor=none;align=left;verticalAlign=middle;whiteSpace=wrap;rounded=0;fontStyle=2" parent="1" vertex="1">
          <mxGeometry x="530" y="500.5" width="175" height="45" as="geometry" />
        </mxCell>
        <mxCell id="oQiGW552PC2_yi8YqRPW-43" value="moving average &lt;br&gt;filter oder&lt;br&gt;[order]" style="html=1;rounded=0;shadow=0;comic=0;labelBackgroundColor=none;strokeWidth=2;fontFamily=Verdana;fontSize=12;align=center;shape=mxgraph.ios7ui.horLines;fillColor=none;" parent="1" vertex="1">
          <mxGeometry x="230" y="240.5" width="120" height="50" as="geometry" />
        </mxCell>
        <mxCell id="oQiGW552PC2_yi8YqRPW-45" value="" style="endArrow=none;dashed=1;html=1;dashPattern=1 3;strokeWidth=2;rounded=0;entryX=0.485;entryY=0.997;entryDx=0;entryDy=0;entryPerimeter=0;exitX=0.25;exitY=0.1;exitDx=0;exitDy=0;exitPerimeter=0;" parent="1" source="oQiGW552PC2_yi8YqRPW-30" target="oQiGW552PC2_yi8YqRPW-43" edge="1">
          <mxGeometry width="50" height="50" relative="1" as="geometry">
            <mxPoint x="595" y="400.5" as="sourcePoint" />
            <mxPoint x="530" y="303.5" as="targetPoint" />
          </mxGeometry>
        </mxCell>
        <mxCell id="oQiGW552PC2_yi8YqRPW-46" value="1..20" style="edgeLabel;html=1;align=center;verticalAlign=middle;resizable=0;points=[];rotation=0;" parent="oQiGW552PC2_yi8YqRPW-45" vertex="1" connectable="0">
          <mxGeometry x="0.2389" y="3" relative="1" as="geometry">
            <mxPoint x="12" y="-13" as="offset" />
          </mxGeometry>
        </mxCell>
        <mxCell id="oQiGW552PC2_yi8YqRPW-48" value="" style="endArrow=none;html=1;rounded=0;entryX=0.5;entryY=1;entryDx=0;entryDy=0;" parent="1" target="oQiGW552PC2_yi8YqRPW-4" edge="1">
          <mxGeometry width="50" height="50" relative="1" as="geometry">
            <mxPoint x="289.89" y="240.5" as="sourcePoint" />
            <mxPoint x="289.89" y="216.5" as="targetPoint" />
          </mxGeometry>
        </mxCell>
        <mxCell id="oQiGW552PC2_yi8YqRPW-52" value="poll interval&lt;br&gt;[sec]" style="html=1;rounded=0;shadow=0;comic=0;labelBackgroundColor=none;strokeWidth=2;fontFamily=Verdana;fontSize=12;align=center;shape=mxgraph.ios7ui.horLines;fillColor=none;" parent="1" vertex="1">
          <mxGeometry x="10" y="240.5" width="190" height="50" as="geometry" />
        </mxCell>
        <mxCell id="oQiGW552PC2_yi8YqRPW-53" value="" style="endArrow=none;dashed=1;html=1;dashPattern=1 3;strokeWidth=2;rounded=0;entryX=0.485;entryY=0.997;entryDx=0;entryDy=0;entryPerimeter=0;exitX=0.25;exitY=0.1;exitDx=0;exitDy=0;exitPerimeter=0;" parent="1" source="oQiGW552PC2_yi8YqRPW-30" edge="1">
          <mxGeometry width="50" height="50" relative="1" as="geometry">
            <mxPoint x="420" y="396.5" as="sourcePoint" />
            <mxPoint x="180" y="290.5" as="targetPoint" />
          </mxGeometry>
        </mxCell>
        <mxCell id="oQiGW552PC2_yi8YqRPW-54" value="1 sec ..30 sec" style="edgeLabel;html=1;align=center;verticalAlign=middle;resizable=0;points=[];rotation=0;" parent="oQiGW552PC2_yi8YqRPW-53" vertex="1" connectable="0">
          <mxGeometry x="0.2389" y="3" relative="1" as="geometry">
            <mxPoint x="-10" y="27" as="offset" />
          </mxGeometry>
        </mxCell>
        <mxCell id="oQiGW552PC2_yi8YqRPW-55" value="" style="endArrow=none;html=1;rounded=0;entryX=0.5;entryY=1;entryDx=0;entryDy=0;" parent="1" target="sCNjADGq2ufAijJcPFuK-1" edge="1">
          <mxGeometry width="50" height="50" relative="1" as="geometry">
            <mxPoint x="105" y="240" as="sourcePoint" />
            <mxPoint x="99.83000000000001" y="216.5" as="targetPoint" />
          </mxGeometry>
        </mxCell>
        <mxCell id="oQiGW552PC2_yi8YqRPW-56" value="" style="endArrow=classic;html=1;rounded=0;entryX=0.5;entryY=0;entryDx=0;entryDy=0;exitX=0.5;exitY=1;exitDx=0;exitDy=0;" parent="1" source="sCNjADGq2ufAijJcPFuK-5" target="oQiGW552PC2_yi8YqRPW-57" edge="1">
          <mxGeometry width="50" height="50" relative="1" as="geometry">
            <mxPoint x="400" y="140.5" as="sourcePoint" />
            <mxPoint x="210.0000000000005" y="150.49999999999986" as="targetPoint" />
            <Array as="points" />
          </mxGeometry>
        </mxCell>
        <mxCell id="oQiGW552PC2_yi8YqRPW-57" value="+" style="ellipse;whiteSpace=wrap;html=1;aspect=fixed;" parent="1" vertex="1">
          <mxGeometry x="380" y="165.5" width="40" height="40" as="geometry" />
        </mxCell>
        <mxCell id="sCNjADGq2ufAijJcPFuK-10" style="edgeStyle=orthogonalEdgeStyle;rounded=0;orthogonalLoop=1;jettySize=auto;html=1;exitX=1;exitY=0.5;exitDx=0;exitDy=0;entryX=0;entryY=0.5;entryDx=0;entryDy=0;" parent="1" source="bK-EadkO21jLIJIZtDA8-1" target="sCNjADGq2ufAijJcPFuK-5" edge="1">
          <mxGeometry relative="1" as="geometry" />
        </mxCell>
        <mxCell id="bK-EadkO21jLIJIZtDA8-1" value="P=UI" style="ellipse;whiteSpace=wrap;html=1;aspect=fixed;" parent="1" vertex="1">
          <mxGeometry x="270" y="90" width="40" height="40" as="geometry" />
        </mxCell>
        <mxCell id="bK-EadkO21jLIJIZtDA8-6" value="scale" style="shape=process;whiteSpace=wrap;html=1;backgroundOutline=1;fillColor=none;" parent="1" vertex="1">
          <mxGeometry x="450" y="160.5" width="120" height="50" as="geometry" />
        </mxCell>
        <mxCell id="bK-EadkO21jLIJIZtDA8-10" value="" style="endArrow=none;dashed=1;html=1;dashPattern=1 3;strokeWidth=2;rounded=0;exitX=0.475;exitY=1.007;exitDx=0;exitDy=0;exitPerimeter=0;entryX=0.75;entryY=0.1;entryDx=0;entryDy=0;entryPerimeter=0;" parent="1" source="17472293e6e8944d-4" target="oQiGW552PC2_yi8YqRPW-30" edge="1">
          <mxGeometry width="50" height="50" relative="1" as="geometry">
            <mxPoint x="650" y="302.5" as="sourcePoint" />
            <mxPoint x="553" y="441.5" as="targetPoint" />
          </mxGeometry>
        </mxCell>
        <mxCell id="bK-EadkO21jLIJIZtDA8-11" value="20 V .. 36 V" style="edgeLabel;html=1;align=center;verticalAlign=middle;resizable=0;points=[];" parent="bK-EadkO21jLIJIZtDA8-10" vertex="1" connectable="0">
          <mxGeometry x="-0.0497" y="-1" relative="1" as="geometry">
            <mxPoint x="74" y="-2" as="offset" />
          </mxGeometry>
        </mxCell>
        <mxCell id="sCNjADGq2ufAijJcPFuK-1" value="Consumption Power" style="shape=step;perimeter=stepPerimeter;whiteSpace=wrap;html=1;fixedSize=1;spacingLeft=22;align=left;" parent="1" vertex="1">
          <mxGeometry x="10" y="160.5" width="190" height="50" as="geometry" />
        </mxCell>
        <mxCell id="sCNjADGq2ufAijJcPFuK-2" value="Feed-in actual DC Current&lt;br&gt;Feed-in actual DC Voltage" style="shape=step;perimeter=stepPerimeter;whiteSpace=wrap;html=1;fixedSize=1;align=left;spacingLeft=22;" parent="1" vertex="1">
          <mxGeometry x="10" y="85" width="190" height="50" as="geometry" />
        </mxCell>
        <mxCell id="sCNjADGq2ufAijJcPFuK-5" value="Feed-in actual&lt;br&gt;Power" style="whiteSpace=wrap;html=1;rounded=0;shadow=0;comic=0;labelBackgroundColor=none;strokeWidth=1;fontFamily=Verdana;fontSize=12;align=center;fillColor=none;" parent="1" vertex="1">
          <mxGeometry x="350" y="84" width="100" height="51" as="geometry" />
        </mxCell>
        <mxCell id="sCNjADGq2ufAijJcPFuK-12" value="" style="endArrow=classic;html=1;rounded=0;exitX=1;exitY=0.5;exitDx=0;exitDy=0;entryX=0;entryY=0.5;entryDx=0;entryDy=0;" parent="1" source="oQiGW552PC2_yi8YqRPW-57" target="bK-EadkO21jLIJIZtDA8-6" edge="1">
          <mxGeometry width="50" height="50" relative="1" as="geometry">
            <mxPoint x="380" y="170.5" as="sourcePoint" />
            <mxPoint x="430" y="120.5" as="targetPoint" />
          </mxGeometry>
        </mxCell>
        <mxCell id="sCNjADGq2ufAijJcPFuK-13" value="" style="endArrow=classic;html=1;rounded=0;exitX=1;exitY=0.5;exitDx=0;exitDy=0;entryX=0;entryY=0.5;entryDx=0;entryDy=0;" parent="1" source="oQiGW552PC2_yi8YqRPW-4" target="oQiGW552PC2_yi8YqRPW-57" edge="1">
          <mxGeometry width="50" height="50" relative="1" as="geometry">
            <mxPoint x="440" y="200.5" as="sourcePoint" />
            <mxPoint x="490" y="150.5" as="targetPoint" />
          </mxGeometry>
        </mxCell>
        <mxCell id="sCNjADGq2ufAijJcPFuK-14" value="" style="endArrow=classic;html=1;rounded=0;exitX=1;exitY=0.5;exitDx=0;exitDy=0;entryX=0;entryY=0.5;entryDx=0;entryDy=0;" parent="1" source="sCNjADGq2ufAijJcPFuK-2" target="bK-EadkO21jLIJIZtDA8-1" edge="1">
          <mxGeometry width="50" height="50" relative="1" as="geometry">
            <mxPoint x="440" y="200.5" as="sourcePoint" />
            <mxPoint x="490" y="150.5" as="targetPoint" />
          </mxGeometry>
        </mxCell>
        <mxCell id="sCNjADGq2ufAijJcPFuK-15" value="" style="endArrow=classic;html=1;rounded=0;exitX=1;exitY=0.5;exitDx=0;exitDy=0;entryX=0;entryY=0.5;entryDx=0;entryDy=0;" parent="1" source="sCNjADGq2ufAijJcPFuK-1" target="oQiGW552PC2_yi8YqRPW-4" edge="1">
          <mxGeometry width="50" height="50" relative="1" as="geometry">
            <mxPoint x="440" y="200.5" as="sourcePoint" />
            <mxPoint x="490" y="150.5" as="targetPoint" />
          </mxGeometry>
        </mxCell>
        <mxCell id="sCNjADGq2ufAijJcPFuK-16" value="Feed-in target&lt;br&gt;Power" style="whiteSpace=wrap;html=1;rounded=0;shadow=0;comic=0;labelBackgroundColor=none;strokeWidth=1;fontFamily=Verdana;fontSize=12;align=center;fillColor=none;spacingLeft=0;" parent="1" vertex="1">
          <mxGeometry x="1120" y="160.5" width="100" height="49.5" as="geometry" />
        </mxCell>
        <mxCell id="sCNjADGq2ufAijJcPFuK-17" value="P=UI" style="ellipse;whiteSpace=wrap;html=1;aspect=fixed;" parent="1" vertex="1">
          <mxGeometry x="1040" y="165.25" width="40" height="40" as="geometry" />
        </mxCell>
        <mxCell id="sCNjADGq2ufAijJcPFuK-18" value="limit" style="shape=process;whiteSpace=wrap;html=1;backgroundOutline=1;fillColor=none;" parent="1" vertex="1">
          <mxGeometry x="600" y="160.5" width="120" height="50" as="geometry" />
        </mxCell>
        <mxCell id="sCNjADGq2ufAijJcPFuK-19" value="" style="endArrow=classic;html=1;rounded=0;exitX=1;exitY=0.5;exitDx=0;exitDy=0;entryX=0;entryY=0.5;entryDx=0;entryDy=0;" parent="1" source="oQiGW552PC2_yi8YqRPW-27" target="sCNjADGq2ufAijJcPFuK-17" edge="1">
          <mxGeometry width="50" height="50" relative="1" as="geometry">
            <mxPoint x="1080" y="250.5" as="sourcePoint" />
            <mxPoint x="1130" y="200.5" as="targetPoint" />
          </mxGeometry>
        </mxCell>
        <mxCell id="sCNjADGq2ufAijJcPFuK-21" value="" style="endArrow=classic;html=1;rounded=0;entryX=0;entryY=0.5;entryDx=0;entryDy=0;exitX=1;exitY=0.5;exitDx=0;exitDy=0;" parent="1" source="sCNjADGq2ufAijJcPFuK-17" target="sCNjADGq2ufAijJcPFuK-16" edge="1">
          <mxGeometry width="50" height="50" relative="1" as="geometry">
            <mxPoint x="920" y="270.5" as="sourcePoint" />
            <mxPoint x="970" y="220.5" as="targetPoint" />
          </mxGeometry>
        </mxCell>
        <mxCell id="sCNjADGq2ufAijJcPFuK-22" value="" style="endArrow=none;html=1;rounded=0;entryX=0.5;entryY=1;entryDx=0;entryDy=0;exitX=0.5;exitY=-0.027;exitDx=0;exitDy=0;exitPerimeter=0;" parent="1" source="17472293e6e8944d-4" target="sCNjADGq2ufAijJcPFuK-17" edge="1">
          <mxGeometry width="50" height="50" relative="1" as="geometry">
            <mxPoint x="980" y="270.5" as="sourcePoint" />
            <mxPoint x="1030" y="220.5" as="targetPoint" />
          </mxGeometry>
        </mxCell>
        <mxCell id="sCNjADGq2ufAijJcPFuK-23" value="" style="endArrow=none;html=1;rounded=0;entryX=0.5;entryY=1;entryDx=0;entryDy=0;exitX=0.5;exitY=0;exitDx=0;exitDy=0;" parent="1" source="sCNjADGq2ufAijJcPFuK-1" target="sCNjADGq2ufAijJcPFuK-2" edge="1">
          <mxGeometry width="50" height="50" relative="1" as="geometry">
            <mxPoint x="100" y="160" as="sourcePoint" />
            <mxPoint x="100" y="140.5" as="targetPoint" />
          </mxGeometry>
        </mxCell>
        <mxCell id="sCNjADGq2ufAijJcPFuK-24" value="" style="endArrow=classic;html=1;rounded=0;entryX=0;entryY=0.5;entryDx=0;entryDy=0;exitX=1;exitY=0.5;exitDx=0;exitDy=0;" parent="1" source="bK-EadkO21jLIJIZtDA8-6" target="sCNjADGq2ufAijJcPFuK-18" edge="1">
          <mxGeometry width="50" height="50" relative="1" as="geometry">
            <mxPoint x="530" y="250.5" as="sourcePoint" />
            <mxPoint x="580" y="200.5" as="targetPoint" />
          </mxGeometry>
        </mxCell>
        <mxCell id="sCNjADGq2ufAijJcPFuK-66" value="using min. and max DC current values together with DC voltage value, the required power values for scaling are calculated by P=UI." style="text;html=1;strokeColor=none;fillColor=none;align=left;verticalAlign=middle;whiteSpace=wrap;rounded=0;fontStyle=2" parent="1" vertex="1">
          <mxGeometry x="572.5" y="300" width="175" height="80" as="geometry" />
        </mxCell>
        <mxCell id="sCNjADGq2ufAijJcPFuK-67" value="Feed-in target DC Current&lt;br style=&quot;border-color: var(--border-color);&quot;&gt;Feed-in target DC Voltage" style="shape=step;perimeter=stepPerimeter;whiteSpace=wrap;html=1;fixedSize=1;spacingLeft=22;align=left;" parent="1" vertex="1">
          <mxGeometry x="1030" y="84" width="190" height="50" as="geometry" />
        </mxCell>
        <mxCell id="sCNjADGq2ufAijJcPFuK-68" value="" style="endArrow=classic;html=1;rounded=0;exitX=0.5;exitY=0;exitDx=0;exitDy=0;" parent="1" source="sCNjADGq2ufAijJcPFuK-17" edge="1">
          <mxGeometry width="50" height="50" relative="1" as="geometry">
            <mxPoint x="1059.8" y="165.25" as="sourcePoint" />
            <mxPoint x="1060" y="136" as="targetPoint" />
          </mxGeometry>
        </mxCell>
        <mxCell id="sCNjADGq2ufAijJcPFuK-69" value="&lt;i&gt;to DPM86xx&lt;/i&gt;" style="text;html=1;align=left;verticalAlign=middle;whiteSpace=wrap;rounded=0;" parent="1" vertex="1">
          <mxGeometry x="1030" y="64" width="110" height="20" as="geometry" />
        </mxCell>
        <mxCell id="sCNjADGq2ufAijJcPFuK-71" value="&lt;i&gt;from DPM86xx&lt;/i&gt;" style="text;html=1;align=left;verticalAlign=middle;whiteSpace=wrap;rounded=0;" parent="1" vertex="1">
          <mxGeometry x="10" y="65" width="110" height="20" as="geometry" />
        </mxCell>
        <mxCell id="sCNjADGq2ufAijJcPFuK-72" value="&lt;i&gt;from Shelly 3EM&lt;/i&gt;" style="text;html=1;align=left;verticalAlign=middle;whiteSpace=wrap;rounded=0;" parent="1" vertex="1">
          <mxGeometry x="10" y="140.5" width="110" height="20" as="geometry" />
        </mxCell>
        <mxCell id="gMVh57zRrH7NaC8IP8_r-1" value="discrete approximation" style="shape=process;whiteSpace=wrap;html=1;backgroundOutline=1;fillColor=none;" parent="1" vertex="1">
          <mxGeometry x="750" y="160.25" width="120" height="50" as="geometry" />
        </mxCell>
        <mxCell id="gMVh57zRrH7NaC8IP8_r-2" value="" style="endArrow=classic;html=1;rounded=0;entryX=0;entryY=0.5;entryDx=0;entryDy=0;exitX=1;exitY=0.5;exitDx=0;exitDy=0;" parent="1" source="sCNjADGq2ufAijJcPFuK-18" target="gMVh57zRrH7NaC8IP8_r-1" edge="1">
          <mxGeometry width="50" height="50" relative="1" as="geometry">
            <mxPoint x="720" y="186.01" as="sourcePoint" />
            <mxPoint x="750" y="186.01" as="targetPoint" />
          </mxGeometry>
        </mxCell>
        <mxCell id="gMVh57zRrH7NaC8IP8_r-3" value="" style="endArrow=classic;html=1;rounded=0;entryX=0;entryY=0.5;entryDx=0;entryDy=0;exitX=1;exitY=0.5;exitDx=0;exitDy=0;" parent="1" source="gMVh57zRrH7NaC8IP8_r-1" target="oQiGW552PC2_yi8YqRPW-27" edge="1">
          <mxGeometry width="50" height="50" relative="1" as="geometry">
            <mxPoint x="870" y="185.26" as="sourcePoint" />
            <mxPoint x="900" y="185.26" as="targetPoint" />
          </mxGeometry>
        </mxCell>
        <mxCell id="gMVh57zRrH7NaC8IP8_r-5" value="&lt;div&gt;Discrete approximation:&lt;br&gt;&lt;/div&gt;&lt;div&gt;&lt;br&gt;&lt;/div&gt;&lt;div&gt;Jump function: Takes place during a downward correction so that a current flow is interrupted as quickly as possible. A change from 9 A to 1 A, for example, takes place in one step.&lt;/div&gt;&lt;div&gt;&lt;br&gt;&lt;/div&gt;&lt;div&gt;Stair function: The target value is approached in defined steps so that no components are damaged by current jumps.&lt;/div&gt;" style="text;html=1;strokeColor=none;fillColor=none;align=left;verticalAlign=middle;whiteSpace=wrap;rounded=0;fontStyle=2" parent="1" vertex="1">
          <mxGeometry x="760" y="440" width="400" height="120" as="geometry" />
        </mxCell>
        <mxCell id="gMVh57zRrH7NaC8IP8_r-8" value="" style="endArrow=classic;html=1;rounded=0;exitX=1;exitY=0.5;exitDx=0;exitDy=0;entryX=0.5;entryY=0;entryDx=0;entryDy=0;" parent="1" source="sCNjADGq2ufAijJcPFuK-5" target="gMVh57zRrH7NaC8IP8_r-1" edge="1">
          <mxGeometry width="50" height="50" relative="1" as="geometry">
            <mxPoint x="630" y="250" as="sourcePoint" />
            <mxPoint x="680" y="200" as="targetPoint" />
            <Array as="points">
              <mxPoint x="810" y="110" />
            </Array>
          </mxGeometry>
        </mxCell>
        <mxCell id="sD_-ogyzjhvQeEd0BSxD-1" value="Number of strings" style="edgeLabel;html=1;align=center;verticalAlign=middle;resizable=0;points=[];" vertex="1" connectable="0" parent="1">
          <mxGeometry x="584.9964129828638" y="420.00351277604835" as="geometry">
            <mxPoint x="-6" y="-2" as="offset" />
          </mxGeometry>
        </mxCell>
        <mxCell id="sD_-ogyzjhvQeEd0BSxD-2" value="1 | 2" style="edgeLabel;html=1;align=center;verticalAlign=middle;resizable=0;points=[];" vertex="1" connectable="0" parent="1">
          <mxGeometry x="499.99641298286383" y="420.00351277604835" as="geometry" />
        </mxCell>
      </root>
    </mxGraphModel>
  </diagram>
  <diagram id="KZTT-21_bTak2RrEfn8C" name="system setup">
    <mxGraphModel dx="2074" dy="1196" grid="1" gridSize="10" guides="1" tooltips="1" connect="1" arrows="1" fold="1" page="1" pageScale="1" pageWidth="827" pageHeight="1169" math="0" shadow="0">
      <root>
        <mxCell id="0" />
        <mxCell id="1" parent="0" />
        <mxCell id="RhN4H60Ts_o3--g2k4sr-48" value="" style="group" parent="1" vertex="1" connectable="0">
          <mxGeometry x="14" y="310" width="35" height="60" as="geometry" />
        </mxCell>
        <mxCell id="RhN4H60Ts_o3--g2k4sr-46" value="" style="rounded=0;whiteSpace=wrap;html=1;" parent="RhN4H60Ts_o3--g2k4sr-48" vertex="1">
          <mxGeometry y="10" width="30" height="40" as="geometry" />
        </mxCell>
        <mxCell id="RhN4H60Ts_o3--g2k4sr-49" value="" style="endArrow=none;html=1;rounded=0;" parent="RhN4H60Ts_o3--g2k4sr-48" edge="1">
          <mxGeometry width="50" height="50" relative="1" as="geometry">
            <mxPoint x="10" y="60" as="sourcePoint" />
            <mxPoint x="10" as="targetPoint" />
          </mxGeometry>
        </mxCell>
        <mxCell id="RhN4H60Ts_o3--g2k4sr-50" value="" style="endArrow=none;html=1;rounded=0;" parent="RhN4H60Ts_o3--g2k4sr-48" edge="1">
          <mxGeometry width="50" height="50" relative="1" as="geometry">
            <mxPoint x="20" y="60" as="sourcePoint" />
            <mxPoint x="20" as="targetPoint" />
          </mxGeometry>
        </mxCell>
        <mxCell id="RhN4H60Ts_o3--g2k4sr-62" value="16 A" style="text;html=1;align=center;verticalAlign=middle;resizable=0;points=[];autosize=1;strokeColor=none;fillColor=none;fontSize=8;rotation=-90;spacing=0;" parent="RhN4H60Ts_o3--g2k4sr-48" vertex="1">
          <mxGeometry x="-5" y="20" width="40" height="20" as="geometry" />
        </mxCell>
        <mxCell id="RhN4H60Ts_o3--g2k4sr-65" value="&lt;div style=&quot;font-size: 8px;&quot;&gt;&lt;i style=&quot;font-size: 8px;&quot;&gt;2x 2-pole DC fuse switches for disconnecting the&lt;/i&gt;&lt;/div&gt;&lt;div style=&quot;font-size: 8px;&quot;&gt;&lt;i style=&quot;font-size: 8px;&quot;&gt;PV modules from the system.&lt;/i&gt;&lt;/div&gt;" style="text;html=1;align=left;verticalAlign=middle;resizable=0;points=[];autosize=1;strokeColor=none;fillColor=none;fontSize=8;" parent="1" vertex="1">
          <mxGeometry x="99" y="320" width="200" height="30" as="geometry" />
        </mxCell>
        <mxCell id="Vg1Hgn3gGh7TF9uyAWq9-24" value="" style="group" vertex="1" connectable="0" parent="1">
          <mxGeometry x="14" y="40" width="800" height="230" as="geometry" />
        </mxCell>
        <mxCell id="RhN4H60Ts_o3--g2k4sr-8" value="" style="rounded=0;whiteSpace=wrap;html=1;" parent="Vg1Hgn3gGh7TF9uyAWq9-24" vertex="1">
          <mxGeometry width="800" height="230" as="geometry" />
        </mxCell>
        <mxCell id="RhN4H60Ts_o3--g2k4sr-43" value="2x3 modules parallel : Vmp: 105 V, Imp: 22 A" style="text;html=1;align=left;verticalAlign=middle;resizable=0;points=[];autosize=1;strokeColor=none;fillColor=none;fontSize=10;" parent="Vg1Hgn3gGh7TF9uyAWq9-24" vertex="1">
          <mxGeometry x="290" width="220" height="30" as="geometry" />
        </mxCell>
        <mxCell id="Vg1Hgn3gGh7TF9uyAWq9-9" value="" style="group" vertex="1" connectable="0" parent="Vg1Hgn3gGh7TF9uyAWq9-24">
          <mxGeometry x="410" y="30" width="380" height="200" as="geometry" />
        </mxCell>
        <mxCell id="RhN4H60Ts_o3--g2k4sr-41" value="" style="endArrow=none;html=1;rounded=0;entryX=0;entryY=0.5;entryDx=0;entryDy=0;strokeWidth=2;strokeColor=#FF0000;" parent="Vg1Hgn3gGh7TF9uyAWq9-9" target="RhN4H60Ts_o3--g2k4sr-33" edge="1">
          <mxGeometry width="50" height="50" relative="1" as="geometry">
            <mxPoint y="200" as="sourcePoint" />
            <mxPoint y="90" as="targetPoint" />
            <Array as="points">
              <mxPoint y="80" />
            </Array>
          </mxGeometry>
        </mxCell>
        <mxCell id="RhN4H60Ts_o3--g2k4sr-33" value="" style="rounded=0;whiteSpace=wrap;html=1;" parent="Vg1Hgn3gGh7TF9uyAWq9-9" vertex="1">
          <mxGeometry x="20" width="100" height="160" as="geometry" />
        </mxCell>
        <mxCell id="RhN4H60Ts_o3--g2k4sr-34" value="JAM60S20-385/MR" style="text;whiteSpace=wrap;fontSize=10;spacing=0;" parent="Vg1Hgn3gGh7TF9uyAWq9-9" vertex="1">
          <mxGeometry x="25" width="90" height="20" as="geometry" />
        </mxCell>
        <mxCell id="Vg1Hgn3gGh7TF9uyAWq9-1" value="" style="rounded=0;whiteSpace=wrap;html=1;" vertex="1" parent="Vg1Hgn3gGh7TF9uyAWq9-9">
          <mxGeometry x="140" width="100" height="160" as="geometry" />
        </mxCell>
        <mxCell id="Vg1Hgn3gGh7TF9uyAWq9-2" value="" style="rounded=0;whiteSpace=wrap;html=1;" vertex="1" parent="Vg1Hgn3gGh7TF9uyAWq9-9">
          <mxGeometry x="260" width="100" height="160" as="geometry" />
        </mxCell>
        <mxCell id="Vg1Hgn3gGh7TF9uyAWq9-3" value="" style="endArrow=none;html=1;rounded=0;strokeWidth=2;strokeColor=#FF0000;exitX=1;exitY=0.5;exitDx=0;exitDy=0;" edge="1" parent="Vg1Hgn3gGh7TF9uyAWq9-9" source="RhN4H60Ts_o3--g2k4sr-33">
          <mxGeometry width="50" height="50" relative="1" as="geometry">
            <mxPoint x="70" y="90" as="sourcePoint" />
            <mxPoint x="130" y="80" as="targetPoint" />
            <Array as="points" />
          </mxGeometry>
        </mxCell>
        <mxCell id="Vg1Hgn3gGh7TF9uyAWq9-4" value="" style="endArrow=none;html=1;rounded=0;strokeWidth=2;strokeColor=#000000;entryX=0;entryY=0.5;entryDx=0;entryDy=0;" edge="1" parent="Vg1Hgn3gGh7TF9uyAWq9-9" target="Vg1Hgn3gGh7TF9uyAWq9-1">
          <mxGeometry width="50" height="50" relative="1" as="geometry">
            <mxPoint x="130" y="80" as="sourcePoint" />
            <mxPoint x="-70" y="260" as="targetPoint" />
            <Array as="points" />
          </mxGeometry>
        </mxCell>
        <mxCell id="Vg1Hgn3gGh7TF9uyAWq9-5" value="" style="endArrow=none;html=1;rounded=0;strokeWidth=2;strokeColor=#FF0000;exitX=1;exitY=0.5;exitDx=0;exitDy=0;" edge="1" parent="Vg1Hgn3gGh7TF9uyAWq9-9">
          <mxGeometry width="50" height="50" relative="1" as="geometry">
            <mxPoint x="240" y="79.9" as="sourcePoint" />
            <mxPoint x="250" y="79.9" as="targetPoint" />
            <Array as="points" />
          </mxGeometry>
        </mxCell>
        <mxCell id="Vg1Hgn3gGh7TF9uyAWq9-6" value="" style="endArrow=none;html=1;rounded=0;strokeWidth=2;strokeColor=#000000;entryX=0;entryY=0.5;entryDx=0;entryDy=0;" edge="1" parent="Vg1Hgn3gGh7TF9uyAWq9-9">
          <mxGeometry width="50" height="50" relative="1" as="geometry">
            <mxPoint x="250" y="79.9" as="sourcePoint" />
            <mxPoint x="260" y="79.9" as="targetPoint" />
            <Array as="points" />
          </mxGeometry>
        </mxCell>
        <mxCell id="RhN4H60Ts_o3--g2k4sr-40" value="JAM60S20-365/MR" style="text;whiteSpace=wrap;fontSize=10;spacing=0;" parent="Vg1Hgn3gGh7TF9uyAWq9-9" vertex="1">
          <mxGeometry x="265" width="90" height="20" as="geometry" />
        </mxCell>
        <mxCell id="RhN4H60Ts_o3--g2k4sr-37" value="JAM60S20-385/MR" style="text;whiteSpace=wrap;fontSize=10;spacing=0;" parent="Vg1Hgn3gGh7TF9uyAWq9-9" vertex="1">
          <mxGeometry x="145" width="90" height="20" as="geometry" />
        </mxCell>
        <mxCell id="Vg1Hgn3gGh7TF9uyAWq9-7" value="" style="endArrow=none;html=1;rounded=0;strokeWidth=2;strokeColor=#000000;" edge="1" parent="Vg1Hgn3gGh7TF9uyAWq9-9">
          <mxGeometry width="50" height="50" relative="1" as="geometry">
            <mxPoint x="370" y="79.9" as="sourcePoint" />
            <mxPoint x="380" y="200" as="targetPoint" />
            <Array as="points">
              <mxPoint x="360" y="80" />
              <mxPoint x="380" y="80" />
            </Array>
          </mxGeometry>
        </mxCell>
        <mxCell id="Vg1Hgn3gGh7TF9uyAWq9-8" value="3 modules in series:&lt;br style=&quot;border-color: var(--border-color); font-size: 9px; text-align: left;&quot;&gt;&lt;span style=&quot;font-size: 9px; text-align: left;&quot;&gt;Vmp: 105&lt;/span&gt;&lt;span style=&quot;border-color: var(--border-color); font-size: 9px; text-align: left; background-color: initial;&quot;&gt;&amp;nbsp;V,&amp;nbsp;&lt;/span&gt;&lt;span style=&quot;font-size: 9px; text-align: left;&quot;&gt;Imp: 11 A&lt;/span&gt;" style="text;html=1;align=center;verticalAlign=middle;resizable=0;points=[];autosize=1;strokeColor=none;fillColor=none;" vertex="1" parent="Vg1Hgn3gGh7TF9uyAWq9-9">
          <mxGeometry x="120" y="160" width="130" height="40" as="geometry" />
        </mxCell>
        <mxCell id="Vg1Hgn3gGh7TF9uyAWq9-10" value="" style="group" vertex="1" connectable="0" parent="Vg1Hgn3gGh7TF9uyAWq9-24">
          <mxGeometry x="10" y="30" width="380" height="200" as="geometry" />
        </mxCell>
        <mxCell id="Vg1Hgn3gGh7TF9uyAWq9-11" value="" style="endArrow=none;html=1;rounded=0;entryX=0;entryY=0.5;entryDx=0;entryDy=0;strokeWidth=2;strokeColor=#FF0000;" edge="1" parent="Vg1Hgn3gGh7TF9uyAWq9-10" target="Vg1Hgn3gGh7TF9uyAWq9-12">
          <mxGeometry width="50" height="50" relative="1" as="geometry">
            <mxPoint y="200" as="sourcePoint" />
            <mxPoint y="90" as="targetPoint" />
            <Array as="points">
              <mxPoint y="80" />
            </Array>
          </mxGeometry>
        </mxCell>
        <mxCell id="Vg1Hgn3gGh7TF9uyAWq9-12" value="" style="rounded=0;whiteSpace=wrap;html=1;fillStyle=auto;fillColor=#FFFFFF;" vertex="1" parent="Vg1Hgn3gGh7TF9uyAWq9-10">
          <mxGeometry x="20" width="100" height="160" as="geometry" />
        </mxCell>
        <mxCell id="Vg1Hgn3gGh7TF9uyAWq9-13" value="JAM60S20-385/MR" style="text;whiteSpace=wrap;fontSize=10;spacing=0;" vertex="1" parent="Vg1Hgn3gGh7TF9uyAWq9-10">
          <mxGeometry x="25" width="90" height="20" as="geometry" />
        </mxCell>
        <mxCell id="Vg1Hgn3gGh7TF9uyAWq9-14" value="" style="rounded=0;whiteSpace=wrap;html=1;" vertex="1" parent="Vg1Hgn3gGh7TF9uyAWq9-10">
          <mxGeometry x="140" width="100" height="160" as="geometry" />
        </mxCell>
        <mxCell id="Vg1Hgn3gGh7TF9uyAWq9-15" value="" style="rounded=0;whiteSpace=wrap;html=1;" vertex="1" parent="Vg1Hgn3gGh7TF9uyAWq9-10">
          <mxGeometry x="260" width="100" height="160" as="geometry" />
        </mxCell>
        <mxCell id="Vg1Hgn3gGh7TF9uyAWq9-16" value="" style="endArrow=none;html=1;rounded=0;strokeWidth=2;strokeColor=#FF0000;exitX=1;exitY=0.5;exitDx=0;exitDy=0;" edge="1" parent="Vg1Hgn3gGh7TF9uyAWq9-10" source="Vg1Hgn3gGh7TF9uyAWq9-12">
          <mxGeometry width="50" height="50" relative="1" as="geometry">
            <mxPoint x="70" y="90" as="sourcePoint" />
            <mxPoint x="130" y="80" as="targetPoint" />
            <Array as="points" />
          </mxGeometry>
        </mxCell>
        <mxCell id="Vg1Hgn3gGh7TF9uyAWq9-17" value="" style="endArrow=none;html=1;rounded=0;strokeWidth=2;strokeColor=#000000;entryX=0;entryY=0.5;entryDx=0;entryDy=0;" edge="1" parent="Vg1Hgn3gGh7TF9uyAWq9-10" target="Vg1Hgn3gGh7TF9uyAWq9-14">
          <mxGeometry width="50" height="50" relative="1" as="geometry">
            <mxPoint x="130" y="80" as="sourcePoint" />
            <mxPoint x="-70" y="260" as="targetPoint" />
            <Array as="points" />
          </mxGeometry>
        </mxCell>
        <mxCell id="Vg1Hgn3gGh7TF9uyAWq9-18" value="" style="endArrow=none;html=1;rounded=0;strokeWidth=2;strokeColor=#FF0000;exitX=1;exitY=0.5;exitDx=0;exitDy=0;" edge="1" parent="Vg1Hgn3gGh7TF9uyAWq9-10">
          <mxGeometry width="50" height="50" relative="1" as="geometry">
            <mxPoint x="240" y="79.9" as="sourcePoint" />
            <mxPoint x="250" y="79.9" as="targetPoint" />
            <Array as="points" />
          </mxGeometry>
        </mxCell>
        <mxCell id="Vg1Hgn3gGh7TF9uyAWq9-19" value="" style="endArrow=none;html=1;rounded=0;strokeWidth=2;strokeColor=#000000;entryX=0;entryY=0.5;entryDx=0;entryDy=0;" edge="1" parent="Vg1Hgn3gGh7TF9uyAWq9-10">
          <mxGeometry width="50" height="50" relative="1" as="geometry">
            <mxPoint x="250" y="79.9" as="sourcePoint" />
            <mxPoint x="260" y="79.9" as="targetPoint" />
            <Array as="points" />
          </mxGeometry>
        </mxCell>
        <mxCell id="Vg1Hgn3gGh7TF9uyAWq9-20" value="JAM60S20-365/MR" style="text;whiteSpace=wrap;fontSize=10;spacing=0;" vertex="1" parent="Vg1Hgn3gGh7TF9uyAWq9-10">
          <mxGeometry x="265" width="90" height="20" as="geometry" />
        </mxCell>
        <mxCell id="Vg1Hgn3gGh7TF9uyAWq9-21" value="JAM60S20-385/MR" style="text;whiteSpace=wrap;fontSize=10;spacing=0;" vertex="1" parent="Vg1Hgn3gGh7TF9uyAWq9-10">
          <mxGeometry x="145" width="90" height="20" as="geometry" />
        </mxCell>
        <mxCell id="Vg1Hgn3gGh7TF9uyAWq9-22" value="" style="endArrow=none;html=1;rounded=0;strokeWidth=2;strokeColor=#000000;" edge="1" parent="Vg1Hgn3gGh7TF9uyAWq9-10">
          <mxGeometry width="50" height="50" relative="1" as="geometry">
            <mxPoint x="370" y="79.9" as="sourcePoint" />
            <mxPoint x="380" y="200" as="targetPoint" />
            <Array as="points">
              <mxPoint x="360" y="80" />
              <mxPoint x="380" y="80" />
            </Array>
          </mxGeometry>
        </mxCell>
        <mxCell id="Vg1Hgn3gGh7TF9uyAWq9-23" value="3 modules in series:&lt;br style=&quot;border-color: var(--border-color); font-size: 9px; text-align: left;&quot;&gt;&lt;span style=&quot;font-size: 9px; text-align: left;&quot;&gt;Vmp: 105&lt;/span&gt;&lt;span style=&quot;border-color: var(--border-color); font-size: 9px; text-align: left; background-color: initial;&quot;&gt;&amp;nbsp;V,&amp;nbsp;&lt;/span&gt;&lt;span style=&quot;font-size: 9px; text-align: left;&quot;&gt;Imp: 11 A&lt;/span&gt;" style="text;html=1;align=center;verticalAlign=middle;resizable=0;points=[];autosize=1;strokeColor=none;fillColor=none;" vertex="1" parent="Vg1Hgn3gGh7TF9uyAWq9-10">
          <mxGeometry x="120" y="160" width="130" height="40" as="geometry" />
        </mxCell>
        <mxCell id="Vg1Hgn3gGh7TF9uyAWq9-25" value="" style="endArrow=none;html=1;rounded=0;strokeWidth=2;strokeColor=#FF0000;exitX=0.434;exitY=0.012;exitDx=0;exitDy=0;exitPerimeter=0;" edge="1" parent="1" source="Vg1Hgn3gGh7TF9uyAWq9-57">
          <mxGeometry width="50" height="50" relative="1" as="geometry">
            <mxPoint x="313.71" y="510" as="sourcePoint" />
            <mxPoint x="314" y="380" as="targetPoint" />
          </mxGeometry>
        </mxCell>
        <mxCell id="Vg1Hgn3gGh7TF9uyAWq9-26" value="" style="endArrow=none;html=1;rounded=0;strokeWidth=2;exitX=0.56;exitY=0.004;exitDx=0;exitDy=0;exitPerimeter=0;" edge="1" parent="1" source="Vg1Hgn3gGh7TF9uyAWq9-57">
          <mxGeometry width="50" height="50" relative="1" as="geometry">
            <mxPoint x="323.71" y="510" as="sourcePoint" />
            <mxPoint x="324" y="390" as="targetPoint" />
          </mxGeometry>
        </mxCell>
        <mxCell id="Vg1Hgn3gGh7TF9uyAWq9-27" value="" style="endArrow=none;html=1;rounded=0;strokeWidth=2;strokeColor=#FF0000;" edge="1" parent="1">
          <mxGeometry width="50" height="50" relative="1" as="geometry">
            <mxPoint x="24" y="310" as="sourcePoint" />
            <mxPoint x="24" y="270" as="targetPoint" />
          </mxGeometry>
        </mxCell>
        <mxCell id="Vg1Hgn3gGh7TF9uyAWq9-28" value="" style="endArrow=none;html=1;rounded=0;strokeWidth=2;" edge="1" parent="1">
          <mxGeometry width="50" height="50" relative="1" as="geometry">
            <mxPoint x="34" y="310" as="sourcePoint" />
            <mxPoint x="404" y="270" as="targetPoint" />
            <Array as="points">
              <mxPoint x="34" y="280" />
              <mxPoint x="404" y="280" />
            </Array>
          </mxGeometry>
        </mxCell>
        <mxCell id="Vg1Hgn3gGh7TF9uyAWq9-30" value="" style="group" vertex="1" connectable="0" parent="1">
          <mxGeometry x="64" y="310" width="35" height="60" as="geometry" />
        </mxCell>
        <mxCell id="Vg1Hgn3gGh7TF9uyAWq9-31" value="" style="rounded=0;whiteSpace=wrap;html=1;" vertex="1" parent="Vg1Hgn3gGh7TF9uyAWq9-30">
          <mxGeometry y="10" width="30" height="40" as="geometry" />
        </mxCell>
        <mxCell id="Vg1Hgn3gGh7TF9uyAWq9-32" value="" style="endArrow=none;html=1;rounded=0;" edge="1" parent="Vg1Hgn3gGh7TF9uyAWq9-30">
          <mxGeometry width="50" height="50" relative="1" as="geometry">
            <mxPoint x="10" y="60" as="sourcePoint" />
            <mxPoint x="10" as="targetPoint" />
          </mxGeometry>
        </mxCell>
        <mxCell id="Vg1Hgn3gGh7TF9uyAWq9-33" value="" style="endArrow=none;html=1;rounded=0;" edge="1" parent="Vg1Hgn3gGh7TF9uyAWq9-30">
          <mxGeometry width="50" height="50" relative="1" as="geometry">
            <mxPoint x="20" y="60" as="sourcePoint" />
            <mxPoint x="20" as="targetPoint" />
          </mxGeometry>
        </mxCell>
        <mxCell id="Vg1Hgn3gGh7TF9uyAWq9-34" value="16 A" style="text;html=1;align=center;verticalAlign=middle;resizable=0;points=[];autosize=1;strokeColor=none;fillColor=none;fontSize=8;rotation=-90;spacing=0;" vertex="1" parent="Vg1Hgn3gGh7TF9uyAWq9-30">
          <mxGeometry x="-5" y="20" width="40" height="20" as="geometry" />
        </mxCell>
        <mxCell id="Vg1Hgn3gGh7TF9uyAWq9-35" value="" style="endArrow=none;html=1;rounded=0;strokeWidth=2;" edge="1" parent="1">
          <mxGeometry width="50" height="50" relative="1" as="geometry">
            <mxPoint x="84" y="310" as="sourcePoint" />
            <mxPoint x="804" y="270" as="targetPoint" />
            <Array as="points">
              <mxPoint x="84" y="300" />
              <mxPoint x="804" y="300" />
            </Array>
          </mxGeometry>
        </mxCell>
        <mxCell id="Vg1Hgn3gGh7TF9uyAWq9-36" value="" style="endArrow=none;html=1;rounded=0;strokeWidth=2;strokeColor=#FF0000;" edge="1" parent="1">
          <mxGeometry width="50" height="50" relative="1" as="geometry">
            <mxPoint x="74" y="310" as="sourcePoint" />
            <mxPoint x="424" y="270" as="targetPoint" />
            <Array as="points">
              <mxPoint x="74" y="290" />
              <mxPoint x="424" y="290" />
            </Array>
          </mxGeometry>
        </mxCell>
        <mxCell id="Vg1Hgn3gGh7TF9uyAWq9-39" value="" style="group" vertex="1" connectable="0" parent="1">
          <mxGeometry x="134" y="360" width="80" height="50" as="geometry" />
        </mxCell>
        <mxCell id="RhN4H60Ts_o3--g2k4sr-96" value="&lt;font style=&quot;font-size: 10px;&quot;&gt;&amp;nbsp;SmartSolar MPPT 150/35&lt;/font&gt;" style="rounded=0;whiteSpace=wrap;html=1;" parent="Vg1Hgn3gGh7TF9uyAWq9-39" vertex="1">
          <mxGeometry width="80" height="50" as="geometry" />
        </mxCell>
        <mxCell id="Vg1Hgn3gGh7TF9uyAWq9-41" value="" style="endArrow=none;html=1;rounded=0;strokeWidth=2;exitX=0.002;exitY=0.597;exitDx=0;exitDy=0;exitPerimeter=0;" edge="1" parent="1" source="RhN4H60Ts_o3--g2k4sr-96">
          <mxGeometry width="50" height="50" relative="1" as="geometry">
            <mxPoint x="34" y="390" as="sourcePoint" />
            <mxPoint x="33.99999999999997" y="370" as="targetPoint" />
            <Array as="points">
              <mxPoint x="34" y="390" />
            </Array>
          </mxGeometry>
        </mxCell>
        <mxCell id="Vg1Hgn3gGh7TF9uyAWq9-42" value="" style="endArrow=none;html=1;rounded=0;strokeWidth=2;strokeColor=#FF0000;" edge="1" parent="1">
          <mxGeometry width="50" height="50" relative="1" as="geometry">
            <mxPoint x="74" y="380" as="sourcePoint" />
            <mxPoint x="74" y="370" as="targetPoint" />
          </mxGeometry>
        </mxCell>
        <mxCell id="Vg1Hgn3gGh7TF9uyAWq9-43" value="" style="endArrow=none;html=1;rounded=0;strokeWidth=2;" edge="1" parent="1">
          <mxGeometry width="50" height="50" relative="1" as="geometry">
            <mxPoint x="84" y="390" as="sourcePoint" />
            <mxPoint x="84" y="370" as="targetPoint" />
          </mxGeometry>
        </mxCell>
        <mxCell id="Vg1Hgn3gGh7TF9uyAWq9-44" value="" style="endArrow=none;html=1;rounded=0;strokeWidth=2;strokeColor=#FF0000;exitX=0;exitY=0.25;exitDx=0;exitDy=0;" edge="1" parent="1">
          <mxGeometry width="50" height="50" relative="1" as="geometry">
            <mxPoint x="134" y="380.00000000000006" as="sourcePoint" />
            <mxPoint x="74" y="380" as="targetPoint" />
          </mxGeometry>
        </mxCell>
        <mxCell id="Vg1Hgn3gGh7TF9uyAWq9-45" value="" style="endArrow=none;html=1;rounded=0;strokeWidth=2;strokeColor=#FF0000;exitX=0;exitY=0.25;exitDx=0;exitDy=0;" edge="1" parent="1">
          <mxGeometry width="50" height="50" relative="1" as="geometry">
            <mxPoint x="74" y="380.00000000000006" as="sourcePoint" />
            <mxPoint x="24" y="370" as="targetPoint" />
            <Array as="points">
              <mxPoint x="24" y="380" />
            </Array>
          </mxGeometry>
        </mxCell>
        <mxCell id="Vg1Hgn3gGh7TF9uyAWq9-50" value="" style="endArrow=none;html=1;rounded=0;strokeWidth=2;strokeColor=#FF0000;entryX=1;entryY=0.25;entryDx=0;entryDy=0;exitX=0;exitY=0.25;exitDx=0;exitDy=0;" edge="1" parent="1" source="Vg1Hgn3gGh7TF9uyAWq9-130">
          <mxGeometry width="50" height="50" relative="1" as="geometry">
            <mxPoint x="553.48" y="379.68000000000006" as="sourcePoint" />
            <mxPoint x="214" y="380" as="targetPoint" />
          </mxGeometry>
        </mxCell>
        <mxCell id="Vg1Hgn3gGh7TF9uyAWq9-51" value="" style="endArrow=none;html=1;rounded=0;strokeWidth=2;entryX=1;entryY=0.75;entryDx=0;entryDy=0;exitX=-0.002;exitY=0.372;exitDx=0;exitDy=0;exitPerimeter=0;" edge="1" parent="1" source="Vg1Hgn3gGh7TF9uyAWq9-130">
          <mxGeometry width="50" height="50" relative="1" as="geometry">
            <mxPoint x="554" y="390" as="sourcePoint" />
            <mxPoint x="214" y="390" as="targetPoint" />
          </mxGeometry>
        </mxCell>
        <mxCell id="Vg1Hgn3gGh7TF9uyAWq9-53" value="" style="group;verticalAlign=middle;" vertex="1" connectable="0" parent="1">
          <mxGeometry x="284" y="660" width="260" height="30" as="geometry" />
        </mxCell>
        <mxCell id="Vg1Hgn3gGh7TF9uyAWq9-54" value="&lt;font style=&quot;font-size: 8px;&quot;&gt;Microinverter 600Wh / 800Wh&lt;/font&gt;" style="rounded=0;whiteSpace=wrap;html=1;fontSize=8;" vertex="1" parent="Vg1Hgn3gGh7TF9uyAWq9-53">
          <mxGeometry width="260" height="30" as="geometry" />
        </mxCell>
        <mxCell id="Vg1Hgn3gGh7TF9uyAWq9-56" value="" style="group" vertex="1" connectable="0" parent="1">
          <mxGeometry x="284" y="510" width="70" height="50" as="geometry" />
        </mxCell>
        <mxCell id="Vg1Hgn3gGh7TF9uyAWq9-57" value="&lt;font style=&quot;font-size: 10px;&quot;&gt;DC / DC&lt;br style=&quot;border-color: var(--border-color); padding: 0px; margin: 0px;&quot;&gt;PSU A&lt;/font&gt;" style="rounded=0;whiteSpace=wrap;html=1;" vertex="1" parent="Vg1Hgn3gGh7TF9uyAWq9-56">
          <mxGeometry width="70" height="50" as="geometry" />
        </mxCell>
        <mxCell id="Vg1Hgn3gGh7TF9uyAWq9-59" value="" style="group" vertex="1" connectable="0" parent="1">
          <mxGeometry x="474" y="510" width="70" height="50" as="geometry" />
        </mxCell>
        <mxCell id="Vg1Hgn3gGh7TF9uyAWq9-60" value="&lt;font style=&quot;font-size: 10px;&quot;&gt;DC / DC&amp;nbsp;&lt;br style=&quot;border-color: var(--border-color); padding: 0px; margin: 0px;&quot;&gt;PSU B&lt;/font&gt;" style="rounded=0;whiteSpace=wrap;html=1;" vertex="1" parent="Vg1Hgn3gGh7TF9uyAWq9-59">
          <mxGeometry width="70" height="50" as="geometry" />
        </mxCell>
        <mxCell id="Vg1Hgn3gGh7TF9uyAWq9-91" value="" style="endArrow=none;html=1;rounded=0;strokeWidth=2;strokeColor=#FF0000;" edge="1" parent="Vg1Hgn3gGh7TF9uyAWq9-59">
          <mxGeometry width="50" height="50" relative="1" as="geometry">
            <mxPoint x="29.82000000000005" y="75" as="sourcePoint" />
            <mxPoint x="30" y="50" as="targetPoint" />
          </mxGeometry>
        </mxCell>
        <mxCell id="Vg1Hgn3gGh7TF9uyAWq9-92" value="" style="endArrow=none;html=1;rounded=0;strokeWidth=2;" edge="1" parent="Vg1Hgn3gGh7TF9uyAWq9-59">
          <mxGeometry width="50" height="50" relative="1" as="geometry">
            <mxPoint x="39.82000000000005" y="75" as="sourcePoint" />
            <mxPoint x="40" y="50" as="targetPoint" />
          </mxGeometry>
        </mxCell>
        <mxCell id="Vg1Hgn3gGh7TF9uyAWq9-62" value="" style="group" vertex="1" connectable="0" parent="1">
          <mxGeometry x="394" y="480" width="40" height="80" as="geometry" />
        </mxCell>
        <mxCell id="Vg1Hgn3gGh7TF9uyAWq9-63" value="" style="rounded=0;whiteSpace=wrap;html=1;" vertex="1" parent="Vg1Hgn3gGh7TF9uyAWq9-62">
          <mxGeometry width="40" height="80" as="geometry" />
        </mxCell>
        <mxCell id="Vg1Hgn3gGh7TF9uyAWq9-64" value="ESP32" style="text;whiteSpace=wrap;fontSize=6;spacing=0;align=center;" vertex="1" parent="Vg1Hgn3gGh7TF9uyAWq9-62">
          <mxGeometry x="2.11" y="7.272727272727273" width="35.79" height="14.545454545454547" as="geometry" />
        </mxCell>
        <mxCell id="Vg1Hgn3gGh7TF9uyAWq9-106" value="USART" style="text;whiteSpace=wrap;fontSize=6;spacing=0;align=center;" vertex="1" parent="Vg1Hgn3gGh7TF9uyAWq9-62">
          <mxGeometry x="2.1000000000000227" y="35.4527272727272" width="35.79" height="14.545454545454547" as="geometry" />
        </mxCell>
        <mxCell id="Vg1Hgn3gGh7TF9uyAWq9-105" value="&lt;font style=&quot;font-size: 10px;&quot;&gt;2&lt;/font&gt;" style="rounded=0;whiteSpace=wrap;html=1;" vertex="1" parent="Vg1Hgn3gGh7TF9uyAWq9-62">
          <mxGeometry x="30" y="50" width="10" height="20" as="geometry" />
        </mxCell>
        <mxCell id="Vg1Hgn3gGh7TF9uyAWq9-68" value="" style="group" vertex="1" connectable="0" parent="1">
          <mxGeometry x="394" y="410" width="40" height="50" as="geometry" />
        </mxCell>
        <mxCell id="Vg1Hgn3gGh7TF9uyAWq9-69" value="" style="rounded=0;whiteSpace=wrap;html=1;" vertex="1" parent="Vg1Hgn3gGh7TF9uyAWq9-68">
          <mxGeometry width="40" height="50" as="geometry" />
        </mxCell>
        <mxCell id="Vg1Hgn3gGh7TF9uyAWq9-70" value="20V..70V &#xa;DC / DC&#xa;5V" style="text;whiteSpace=wrap;fontSize=6;spacing=0;align=center;" vertex="1" parent="Vg1Hgn3gGh7TF9uyAWq9-68">
          <mxGeometry x="2.11" y="10" width="35.79" height="30" as="geometry" />
        </mxCell>
        <mxCell id="Vg1Hgn3gGh7TF9uyAWq9-87" value="" style="endArrow=none;html=1;rounded=0;strokeWidth=2;exitX=0.75;exitY=0;exitDx=0;exitDy=0;" edge="1" parent="Vg1Hgn3gGh7TF9uyAWq9-68" source="Vg1Hgn3gGh7TF9uyAWq9-69">
          <mxGeometry width="50" height="50" relative="1" as="geometry">
            <mxPoint x="30" y="20" as="sourcePoint" />
            <mxPoint x="30" y="-20" as="targetPoint" />
          </mxGeometry>
        </mxCell>
        <mxCell id="Vg1Hgn3gGh7TF9uyAWq9-71" value="" style="endArrow=none;html=1;rounded=0;strokeWidth=2;strokeColor=#FF0000;exitX=0.428;exitY=0;exitDx=0;exitDy=0;exitPerimeter=0;" edge="1" parent="1" source="Vg1Hgn3gGh7TF9uyAWq9-60">
          <mxGeometry width="50" height="50" relative="1" as="geometry">
            <mxPoint x="504" y="510" as="sourcePoint" />
            <mxPoint x="504" y="380" as="targetPoint" />
          </mxGeometry>
        </mxCell>
        <mxCell id="Vg1Hgn3gGh7TF9uyAWq9-72" value="" style="endArrow=none;html=1;rounded=0;strokeWidth=2;exitX=0.569;exitY=0.009;exitDx=0;exitDy=0;exitPerimeter=0;" edge="1" parent="1" source="Vg1Hgn3gGh7TF9uyAWq9-60">
          <mxGeometry width="50" height="50" relative="1" as="geometry">
            <mxPoint x="514" y="510" as="sourcePoint" />
            <mxPoint x="514" y="390" as="targetPoint" />
          </mxGeometry>
        </mxCell>
        <mxCell id="Vg1Hgn3gGh7TF9uyAWq9-73" value="" style="group" vertex="1" connectable="0" parent="1">
          <mxGeometry x="304" y="580" width="35" height="60" as="geometry" />
        </mxCell>
        <mxCell id="Vg1Hgn3gGh7TF9uyAWq9-74" value="" style="rounded=0;whiteSpace=wrap;html=1;" vertex="1" parent="Vg1Hgn3gGh7TF9uyAWq9-73">
          <mxGeometry y="10" width="30" height="40" as="geometry" />
        </mxCell>
        <mxCell id="Vg1Hgn3gGh7TF9uyAWq9-75" value="" style="endArrow=none;html=1;rounded=0;" edge="1" parent="Vg1Hgn3gGh7TF9uyAWq9-73">
          <mxGeometry width="50" height="50" relative="1" as="geometry">
            <mxPoint x="10" y="60" as="sourcePoint" />
            <mxPoint x="10" as="targetPoint" />
          </mxGeometry>
        </mxCell>
        <mxCell id="Vg1Hgn3gGh7TF9uyAWq9-76" value="" style="endArrow=none;html=1;rounded=0;" edge="1" parent="Vg1Hgn3gGh7TF9uyAWq9-73">
          <mxGeometry width="50" height="50" relative="1" as="geometry">
            <mxPoint x="20" y="60" as="sourcePoint" />
            <mxPoint x="20" as="targetPoint" />
          </mxGeometry>
        </mxCell>
        <mxCell id="Vg1Hgn3gGh7TF9uyAWq9-77" value="16 A" style="text;html=1;align=center;verticalAlign=middle;resizable=0;points=[];autosize=1;strokeColor=none;fillColor=none;fontSize=8;rotation=-90;spacing=0;" vertex="1" parent="Vg1Hgn3gGh7TF9uyAWq9-73">
          <mxGeometry x="-5" y="20" width="40" height="20" as="geometry" />
        </mxCell>
        <mxCell id="Vg1Hgn3gGh7TF9uyAWq9-79" value="" style="group" vertex="1" connectable="0" parent="1">
          <mxGeometry x="494" y="585" width="35" height="60" as="geometry" />
        </mxCell>
        <mxCell id="Vg1Hgn3gGh7TF9uyAWq9-80" value="" style="rounded=0;whiteSpace=wrap;html=1;" vertex="1" parent="Vg1Hgn3gGh7TF9uyAWq9-79">
          <mxGeometry y="10" width="30" height="40" as="geometry" />
        </mxCell>
        <mxCell id="Vg1Hgn3gGh7TF9uyAWq9-81" value="" style="endArrow=none;html=1;rounded=0;" edge="1" parent="Vg1Hgn3gGh7TF9uyAWq9-79">
          <mxGeometry width="50" height="50" relative="1" as="geometry">
            <mxPoint x="10" y="60" as="sourcePoint" />
            <mxPoint x="10" as="targetPoint" />
          </mxGeometry>
        </mxCell>
        <mxCell id="Vg1Hgn3gGh7TF9uyAWq9-82" value="" style="endArrow=none;html=1;rounded=0;" edge="1" parent="Vg1Hgn3gGh7TF9uyAWq9-79">
          <mxGeometry width="50" height="50" relative="1" as="geometry">
            <mxPoint x="20" y="60" as="sourcePoint" />
            <mxPoint x="20" as="targetPoint" />
          </mxGeometry>
        </mxCell>
        <mxCell id="Vg1Hgn3gGh7TF9uyAWq9-83" value="16 A" style="text;html=1;align=center;verticalAlign=middle;resizable=0;points=[];autosize=1;strokeColor=none;fillColor=none;fontSize=8;rotation=-90;spacing=0;" vertex="1" parent="Vg1Hgn3gGh7TF9uyAWq9-79">
          <mxGeometry x="-5" y="20" width="40" height="20" as="geometry" />
        </mxCell>
        <mxCell id="Vg1Hgn3gGh7TF9uyAWq9-84" value="" style="endArrow=none;html=1;rounded=0;strokeWidth=2;strokeColor=#FF8000;entryX=0.25;entryY=1;entryDx=0;entryDy=0;exitX=0.25;exitY=0;exitDx=0;exitDy=0;" edge="1" parent="1" source="Vg1Hgn3gGh7TF9uyAWq9-63" target="Vg1Hgn3gGh7TF9uyAWq9-69">
          <mxGeometry width="50" height="50" relative="1" as="geometry">
            <mxPoint x="404" y="480" as="sourcePoint" />
            <mxPoint x="404.00000000000006" y="460" as="targetPoint" />
          </mxGeometry>
        </mxCell>
        <mxCell id="Vg1Hgn3gGh7TF9uyAWq9-85" value="" style="endArrow=none;html=1;rounded=0;strokeWidth=2;entryX=0.75;entryY=1;entryDx=0;entryDy=0;exitX=0.75;exitY=0;exitDx=0;exitDy=0;" edge="1" parent="1" source="Vg1Hgn3gGh7TF9uyAWq9-63" target="Vg1Hgn3gGh7TF9uyAWq9-69">
          <mxGeometry width="50" height="50" relative="1" as="geometry">
            <mxPoint x="523.71" y="520" as="sourcePoint" />
            <mxPoint x="523.71" y="480" as="targetPoint" />
          </mxGeometry>
        </mxCell>
        <mxCell id="Vg1Hgn3gGh7TF9uyAWq9-86" value="" style="endArrow=none;html=1;rounded=0;strokeWidth=2;strokeColor=#FF0000;exitX=0.25;exitY=0;exitDx=0;exitDy=0;" edge="1" parent="1" source="Vg1Hgn3gGh7TF9uyAWq9-69">
          <mxGeometry width="50" height="50" relative="1" as="geometry">
            <mxPoint x="404" y="410" as="sourcePoint" />
            <mxPoint x="404" y="380" as="targetPoint" />
          </mxGeometry>
        </mxCell>
        <mxCell id="Vg1Hgn3gGh7TF9uyAWq9-89" value="" style="endArrow=none;html=1;rounded=0;strokeWidth=2;strokeColor=#FF0000;" edge="1" parent="1">
          <mxGeometry width="50" height="50" relative="1" as="geometry">
            <mxPoint x="314" y="660" as="sourcePoint" />
            <mxPoint x="314" y="640" as="targetPoint" />
          </mxGeometry>
        </mxCell>
        <mxCell id="Vg1Hgn3gGh7TF9uyAWq9-90" value="" style="endArrow=none;html=1;rounded=0;strokeWidth=2;" edge="1" parent="1">
          <mxGeometry width="50" height="50" relative="1" as="geometry">
            <mxPoint x="324" y="660" as="sourcePoint" />
            <mxPoint x="324" y="639" as="targetPoint" />
          </mxGeometry>
        </mxCell>
        <mxCell id="Vg1Hgn3gGh7TF9uyAWq9-93" value="" style="endArrow=none;html=1;rounded=0;strokeWidth=2;strokeColor=#FF0000;" edge="1" parent="1">
          <mxGeometry width="50" height="50" relative="1" as="geometry">
            <mxPoint x="504" y="660" as="sourcePoint" />
            <mxPoint x="504" y="645" as="targetPoint" />
          </mxGeometry>
        </mxCell>
        <mxCell id="Vg1Hgn3gGh7TF9uyAWq9-94" value="" style="endArrow=none;html=1;rounded=0;strokeWidth=2;" edge="1" parent="1">
          <mxGeometry width="50" height="50" relative="1" as="geometry">
            <mxPoint x="514" y="660" as="sourcePoint" />
            <mxPoint x="514" y="645" as="targetPoint" />
          </mxGeometry>
        </mxCell>
        <mxCell id="Vg1Hgn3gGh7TF9uyAWq9-95" value="" style="endArrow=none;html=1;rounded=0;strokeWidth=2;strokeColor=#FF0000;" edge="1" parent="1">
          <mxGeometry width="50" height="50" relative="1" as="geometry">
            <mxPoint x="314.00000000000006" y="581" as="sourcePoint" />
            <mxPoint x="314" y="560" as="targetPoint" />
          </mxGeometry>
        </mxCell>
        <mxCell id="Vg1Hgn3gGh7TF9uyAWq9-96" value="" style="endArrow=none;html=1;rounded=0;strokeWidth=2;" edge="1" parent="1">
          <mxGeometry width="50" height="50" relative="1" as="geometry">
            <mxPoint x="324.00000000000006" y="580" as="sourcePoint" />
            <mxPoint x="324" y="560" as="targetPoint" />
          </mxGeometry>
        </mxCell>
        <mxCell id="Vg1Hgn3gGh7TF9uyAWq9-104" value="&lt;font style=&quot;font-size: 10px;&quot;&gt;1&lt;/font&gt;" style="rounded=0;whiteSpace=wrap;html=1;" vertex="1" parent="1">
          <mxGeometry x="394" y="530" width="10" height="20" as="geometry" />
        </mxCell>
        <mxCell id="Vg1Hgn3gGh7TF9uyAWq9-107" value="" style="endArrow=classicThin;dashed=1;html=1;rounded=0;exitX=1;exitY=0.5;exitDx=0;exitDy=0;entryX=0;entryY=0.25;entryDx=0;entryDy=0;strokeColor=#00CC00;startArrow=classicThin;startFill=1;endFill=1;" edge="1" parent="1" source="Vg1Hgn3gGh7TF9uyAWq9-57" target="Vg1Hgn3gGh7TF9uyAWq9-104">
          <mxGeometry width="50" height="50" relative="1" as="geometry">
            <mxPoint x="344" y="590" as="sourcePoint" />
            <mxPoint x="394" y="540" as="targetPoint" />
          </mxGeometry>
        </mxCell>
        <mxCell id="Vg1Hgn3gGh7TF9uyAWq9-108" value="" style="endArrow=classicThin;dashed=1;html=1;rounded=0;exitX=1;exitY=0.5;exitDx=0;exitDy=0;entryX=0;entryY=0.25;entryDx=0;entryDy=0;strokeColor=#00CC00;startArrow=classicThin;startFill=1;endFill=1;" edge="1" parent="1">
          <mxGeometry width="50" height="50" relative="1" as="geometry">
            <mxPoint x="434" y="534.79" as="sourcePoint" />
            <mxPoint x="474" y="534.79" as="targetPoint" />
          </mxGeometry>
        </mxCell>
        <mxCell id="Vg1Hgn3gGh7TF9uyAWq9-109" value="" style="html=1;verticalLabelPosition=bottom;align=center;labelBackgroundColor=#ffffff;verticalAlign=top;strokeWidth=2;strokeColor=#0080F0;shadow=0;dashed=0;shape=mxgraph.ios7.icons.wifi;pointerEvents=1;rotation=-180;" vertex="1" parent="1">
          <mxGeometry x="399.15" y="564" width="29.7" height="21" as="geometry" />
        </mxCell>
        <mxCell id="Vg1Hgn3gGh7TF9uyAWq9-110" value="&lt;div style=&quot;font-size: 8px;&quot;&gt;&lt;br&gt;&lt;/div&gt;" style="text;html=1;align=left;verticalAlign=middle;resizable=0;points=[];autosize=1;strokeColor=none;fillColor=none;fontSize=8;" vertex="1" parent="1">
          <mxGeometry x="534" y="605" width="20" height="20" as="geometry" />
        </mxCell>
        <mxCell id="Vg1Hgn3gGh7TF9uyAWq9-112" value="&lt;div style=&quot;&quot;&gt;&lt;i&gt;2x 2-pole DC fuse switches to protect inverter&lt;/i&gt;&lt;br&gt;&lt;/div&gt;" style="text;html=1;align=left;verticalAlign=middle;resizable=0;points=[];autosize=1;strokeColor=none;fillColor=none;fontSize=8;" vertex="1" parent="1">
          <mxGeometry x="329" y="630" width="180" height="20" as="geometry" />
        </mxCell>
        <mxCell id="Vg1Hgn3gGh7TF9uyAWq9-116" value="" style="html=1;verticalLabelPosition=bottom;align=center;labelBackgroundColor=#ffffff;verticalAlign=top;strokeWidth=2;strokeColor=#0080F0;shadow=0;dashed=0;shape=mxgraph.ios7.icons.wifi;pointerEvents=1;rotation=0;" vertex="1" parent="1">
          <mxGeometry x="150.14999999999998" y="564" width="29.7" height="21" as="geometry" />
        </mxCell>
        <mxCell id="Vg1Hgn3gGh7TF9uyAWq9-117" value="" style="endArrow=none;html=1;rounded=0;strokeColor=#994C00;" edge="1" parent="1">
          <mxGeometry width="50" height="50" relative="1" as="geometry">
            <mxPoint x="120" y="670" as="sourcePoint" />
            <mxPoint x="284" y="670" as="targetPoint" />
          </mxGeometry>
        </mxCell>
        <mxCell id="Vg1Hgn3gGh7TF9uyAWq9-118" value="" style="endArrow=none;html=1;rounded=0;" edge="1" parent="1">
          <mxGeometry width="50" height="50" relative="1" as="geometry">
            <mxPoint x="120" y="700" as="sourcePoint" />
            <mxPoint x="200" y="700" as="targetPoint" />
          </mxGeometry>
        </mxCell>
        <mxCell id="Vg1Hgn3gGh7TF9uyAWq9-120" value="" style="rounded=1;whiteSpace=wrap;html=1;fillColor=none;arcSize=50;" vertex="1" parent="1">
          <mxGeometry x="157.5" y="660" width="15" height="50" as="geometry" />
        </mxCell>
        <mxCell id="Vg1Hgn3gGh7TF9uyAWq9-122" value="" style="endArrow=none;html=1;rounded=0;entryX=0.5;entryY=1;entryDx=0;entryDy=0;exitX=0.5;exitY=0;exitDx=0;exitDy=0;" edge="1" parent="1" source="Vg1Hgn3gGh7TF9uyAWq9-120" target="Vg1Hgn3gGh7TF9uyAWq9-127">
          <mxGeometry width="50" height="50" relative="1" as="geometry">
            <mxPoint x="184" y="660" as="sourcePoint" />
            <mxPoint x="182.0000000000001" y="640" as="targetPoint" />
          </mxGeometry>
        </mxCell>
        <mxCell id="Vg1Hgn3gGh7TF9uyAWq9-123" value="" style="endArrow=none;html=1;rounded=0;strokeColor=#999999;" edge="1" parent="1">
          <mxGeometry width="50" height="50" relative="1" as="geometry">
            <mxPoint x="120" y="690" as="sourcePoint" />
            <mxPoint x="200" y="690" as="targetPoint" />
          </mxGeometry>
        </mxCell>
        <mxCell id="Vg1Hgn3gGh7TF9uyAWq9-124" value="" style="endArrow=none;html=1;rounded=0;strokeColor=#0000CC;" edge="1" parent="1">
          <mxGeometry width="50" height="50" relative="1" as="geometry">
            <mxPoint x="120" y="680" as="sourcePoint" />
            <mxPoint x="284" y="680" as="targetPoint" />
          </mxGeometry>
        </mxCell>
        <mxCell id="Vg1Hgn3gGh7TF9uyAWq9-125" value="&lt;div style=&quot;&quot;&gt;&lt;i&gt;230 V net&lt;/i&gt;&lt;br&gt;&lt;/div&gt;" style="text;html=1;align=left;verticalAlign=middle;resizable=0;points=[];autosize=1;strokeColor=none;fillColor=none;fontSize=8;" vertex="1" parent="1">
          <mxGeometry x="224" y="665" width="60" height="20" as="geometry" />
        </mxCell>
        <mxCell id="Vg1Hgn3gGh7TF9uyAWq9-127" value="&lt;font style=&quot;font-size: 10px;&quot;&gt;Shelly 3EM&lt;/font&gt;" style="rounded=0;whiteSpace=wrap;html=1;" vertex="1" parent="1">
          <mxGeometry x="140" y="590" width="50" height="50" as="geometry" />
        </mxCell>
        <mxCell id="Vg1Hgn3gGh7TF9uyAWq9-129" value="" style="group" vertex="1" connectable="0" parent="1">
          <mxGeometry x="560" y="360" width="220" height="80" as="geometry" />
        </mxCell>
        <mxCell id="Vg1Hgn3gGh7TF9uyAWq9-130" value="48V 50Ah LiFePO4 lithium battery" style="rounded=0;whiteSpace=wrap;html=1;" vertex="1" parent="Vg1Hgn3gGh7TF9uyAWq9-129">
          <mxGeometry width="220" height="80" as="geometry" />
        </mxCell>
        <mxCell id="Vg1Hgn3gGh7TF9uyAWq9-140" value="" style="endArrow=classic;html=1;rounded=0;fontColor=none;strokeColor=#FF0000;noLabel=1;" edge="1" parent="1">
          <mxGeometry relative="1" as="geometry">
            <mxPoint x="360" y="380" as="sourcePoint" />
            <mxPoint x="394" y="490" as="targetPoint" />
            <Array as="points">
              <mxPoint x="360" y="490" />
            </Array>
          </mxGeometry>
        </mxCell>
        <mxCell id="Vg1Hgn3gGh7TF9uyAWq9-141" value="&lt;font style=&quot;font-size: 8px;&quot;&gt;ADC&lt;/font&gt;" style="edgeLabel;resizable=0;html=1;;align=center;verticalAlign=middle;" connectable="0" vertex="1" parent="Vg1Hgn3gGh7TF9uyAWq9-140">
          <mxGeometry relative="1" as="geometry" />
        </mxCell>
        <mxCell id="Vg1Hgn3gGh7TF9uyAWq9-149" value="" style="group" vertex="1" connectable="0" parent="1">
          <mxGeometry x="358" y="525" width="30" height="20" as="geometry" />
        </mxCell>
        <mxCell id="Vg1Hgn3gGh7TF9uyAWq9-144" value="" style="shape=parallelogram;perimeter=parallelogramPerimeter;whiteSpace=wrap;html=1;fixedSize=1;size=5.039999999999964;strokeColor=#00CC00;" vertex="1" parent="Vg1Hgn3gGh7TF9uyAWq9-149">
          <mxGeometry x="8" width="15" height="20" as="geometry" />
        </mxCell>
        <mxCell id="Vg1Hgn3gGh7TF9uyAWq9-147" value="3V3&lt;br&gt;⇔&lt;br style=&quot;font-size: 3px;&quot;&gt;5V" style="text;html=1;align=center;verticalAlign=middle;resizable=0;points=[];autosize=1;strokeColor=none;fillColor=none;fontSize=3;" vertex="1" parent="Vg1Hgn3gGh7TF9uyAWq9-149">
          <mxGeometry width="30" height="20" as="geometry" />
        </mxCell>
        <mxCell id="Vg1Hgn3gGh7TF9uyAWq9-150" value="" style="group" vertex="1" connectable="0" parent="1">
          <mxGeometry x="438" y="525" width="30" height="20" as="geometry" />
        </mxCell>
        <mxCell id="Vg1Hgn3gGh7TF9uyAWq9-151" value="" style="shape=parallelogram;perimeter=parallelogramPerimeter;whiteSpace=wrap;html=1;fixedSize=1;size=5.039999999999964;strokeColor=#00CC00;" vertex="1" parent="Vg1Hgn3gGh7TF9uyAWq9-150">
          <mxGeometry x="8" width="15" height="20" as="geometry" />
        </mxCell>
        <mxCell id="Vg1Hgn3gGh7TF9uyAWq9-152" value="3V3&lt;br&gt;⇔&lt;br style=&quot;font-size: 3px;&quot;&gt;5V" style="text;html=1;align=center;verticalAlign=middle;resizable=0;points=[];autosize=1;strokeColor=none;fillColor=none;fontSize=3;" vertex="1" parent="Vg1Hgn3gGh7TF9uyAWq9-150">
          <mxGeometry width="30" height="20" as="geometry" />
        </mxCell>
        <mxCell id="Vg1Hgn3gGh7TF9uyAWq9-153" value="&lt;div style=&quot;&quot;&gt;&lt;i&gt;Recording of total&amp;nbsp;&lt;/i&gt;&lt;/div&gt;&lt;div style=&quot;&quot;&gt;&lt;i&gt;consumption&amp;nbsp;&lt;/i&gt;&lt;br&gt;&lt;/div&gt;" style="text;html=1;align=left;verticalAlign=middle;resizable=0;points=[];autosize=1;strokeColor=none;fillColor=none;fontSize=8;" vertex="1" parent="1">
          <mxGeometry x="194" y="600" width="90" height="30" as="geometry" />
        </mxCell>
        <mxCell id="GrLvmixrKBop9gv2QbI8-1" value="&lt;div style=&quot;&quot;&gt;&lt;i&gt;String 1&lt;/i&gt;&lt;/div&gt;" style="text;html=1;align=left;verticalAlign=middle;resizable=0;points=[];autosize=1;strokeColor=none;fillColor=none;fontSize=8;rotation=-90;" vertex="1" parent="1">
          <mxGeometry x="279" y="455" width="50" height="20" as="geometry" />
        </mxCell>
        <mxCell id="GrLvmixrKBop9gv2QbI8-2" value="&lt;div style=&quot;&quot;&gt;&lt;i&gt;String 2&lt;/i&gt;&lt;/div&gt;" style="text;html=1;align=left;verticalAlign=middle;resizable=0;points=[];autosize=1;strokeColor=none;fillColor=none;fontSize=8;rotation=-90;" vertex="1" parent="1">
          <mxGeometry x="496" y="455" width="50" height="20" as="geometry" />
        </mxCell>
      </root>
    </mxGraphModel>
  </diagram>
</mxfile>
